<svg width="48" height="44" viewBox="0 0 48 44" fill="none" xmlns="http://www.w3.org/2000/svg">
<path fill-rule="evenodd" clip-rule="evenodd" d="M34.9902 23.961C33.6582 28.245 30.3382 31.211 25.9202 31.865C19.1782 32.863 12.5582 27.751 12.0342 20.951C11.4902 13.895 17.0562 8.00098 24.0022 8.00098C25.6082 8.00098 27.1402 8.31697 28.5402 8.88897C29.0262 9.08697 29.5762 8.91698 29.8242 8.45697L32.6942 3.16298C32.9662 2.65698 32.7702 2.00498 32.2462 1.76898C29.7322 0.632976 26.9442 0.000976562 24.0082 0.000976562C12.7642 0.000976562 3.68619 9.27297 4.00819 20.587C4.30219 30.909 12.8222 39.545 23.1362 39.983C34.2282 40.451 43.4282 31.891 43.9862 21.045C44.0082 20.649 44.0002 18.343 43.9922 16.991C43.9902 16.439 43.5422 16.001 42.9922 16.001H24.9942C24.4422 16.001 23.9942 16.447 23.9942 17.001V22.961C23.9942 23.511 24.4422 23.961 24.9942 23.961H34.9902Z" fill="#231F20"/>
<mask id="mask0" mask-type="alpha" maskUnits="userSpaceOnUse" x="3" y="0" width="42" height="41">
<path fill-rule="evenodd" clip-rule="evenodd" d="M34.9902 23.961C33.6582 28.245 30.3382 31.211 25.9202 31.865C19.1782 32.863 12.5582 27.751 12.0342 20.951C11.4902 13.895 17.0562 8.00098 24.0022 8.00098C25.6082 8.00098 27.1402 8.31697 28.5402 8.88897C29.0262 9.08697 29.5762 8.91698 29.8242 8.45697L32.6942 3.16298C32.9662 2.65698 32.7702 2.00498 32.2462 1.76898C29.7322 0.632976 26.9442 0.000976562 24.0082 0.000976562C12.7642 0.000976562 3.68619 9.27297 4.00819 20.587C4.30219 30.909 12.8222 39.545 23.1362 39.983C34.2282 40.451 43.4282 31.891 43.9862 21.045C44.0082 20.649 44.0002 18.343 43.9922 16.991C43.9902 16.439 43.5422 16.001 42.9922 16.001H24.9942C24.4422 16.001 23.9942 16.447 23.9942 17.001V22.961C23.9942 23.511 24.4422 23.961 24.9942 23.961H34.9902Z" fill="white"/>
</mask>
<g mask="url(#mask0)">
<rect y="-4" width="48" height="48" fill="#E2B024"/>
</g>
</svg>
